<svg width="2169" height="896" viewBox="0 0 2169 896" fill="none" xmlns="http://www.w3.org/2000/svg">
<g clip-path="url(#clip0_1459_119)">
<path d="M1274.49 -9H1135.15L749.093 896.16H888.44L1274.49 -9Z" fill="#E07F09"/>
<path d="M1321.62 -9H1285.89L899.839 896.16H935.569L1321.62 -9Z" fill="#E07F09"/>
<path d="M1136.85 -9H1135.15L749.093 896.16H750.794L1136.85 -9Z" fill="#C8500D"/>
<path d="M1139.74 -9H1138.04L751.985 896.16H753.687L1139.74 -9Z" fill="#C8500D"/>
<path d="M1142.63 -9H1140.93L754.878 896.16H756.579L1142.63 -9Z" fill="#C8500D"/>
<path d="M1145.53 -9H1143.82L757.77 896.16H759.471L1145.53 -9Z" fill="#C8500D"/>
<path d="M1148.42 -9H1146.72L760.662 896.16H762.364L1148.42 -9Z" fill="#C8500D"/>
<path d="M1151.31 -9H1149.61L763.555 896.16H765.256L1151.31 -9Z" fill="#C8500D"/>
<path d="M1154.2 -9H1152.5L766.447 896.16H768.149L1154.2 -9Z" fill="#C8500D"/>
<path d="M1157.1 -9H1155.39L769.34 896.16H771.041L1157.1 -9Z" fill="#C8500D"/>
<path d="M1159.99 -9H1158.29L772.232 896.16H773.934L1159.99 -9Z" fill="#C8500D"/>
<path d="M1162.88 -9H1161.18L775.125 896.16H776.826L1162.88 -9Z" fill="#C8500D"/>
<path d="M1165.77 -9H1164.07L778.017 896.16H779.718L1165.77 -9Z" fill="#C8500D"/>
<path d="M1168.67 -9H1166.96L780.909 896.16H782.611L1168.67 -9Z" fill="#C8500D"/>
<path d="M1171.56 -9H1169.86L783.802 896.16H785.503L1171.56 -9Z" fill="#C8500D"/>
<path d="M1547.57 -9H1327.07L941.014 896.16H1161.52L1547.57 -9Z" fill="#E07F09"/>
<path fill-rule="evenodd" clip-rule="evenodd" d="M1603.04 896.16H1805V422.637L1603.04 896.16Z" fill="#E07F09"/>
<path fill-rule="evenodd" clip-rule="evenodd" d="M1175.98 896.16H1590.96L1805 394.313V-9H1562.04L1175.98 896.16Z" fill="#E07F09"/>
<path fill-rule="evenodd" clip-rule="evenodd" d="M1389.48 -9H1391.18L1118.47 630.397H1116.77L1389.48 -9ZM1386.58 -9H1388.29L1115.58 630.397H1113.88L1386.58 -9ZM1383.69 -9H1385.39L1112.69 630.397H1110.99L1383.69 -9ZM1380.8 -9H1382.5L1109.8 630.397H1108.09L1380.8 -9ZM1377.91 -9H1379.61L1106.9 630.397H1105.2L1377.91 -9ZM1375.01 -9H1376.72L1104.01 630.397H1102.31L1375.01 -9ZM1372.12 -9H1373.82L1101.12 630.397H1099.42L1372.12 -9ZM1369.23 -9H1370.93L1098.23 630.397H1096.52L1369.23 -9ZM1366.34 -9H1368.04L1095.33 630.397H1093.63L1366.34 -9ZM1363.45 -9H1365.15L1092.44 630.397H1090.74L1363.45 -9ZM1360.55 -9H1362.25L1089.55 630.397H1087.85L1360.55 -9ZM1357.66 -9H1359.36L1086.66 630.397H1084.95L1357.66 -9ZM1356.47 -9L1083.76 630.397H1082.06L1354.77 -9H1356.47Z" fill="#C8500D"/>
<path d="M1653.99 896.16H1652.29L1805 538.114V542.103L1653.99 896.16Z" fill="#C8500D"/>
<path d="M1656.89 896.16H1655.18L1805 544.896V548.885L1656.89 896.16Z" fill="#C8500D"/>
<path d="M1659.78 896.16H1658.08L1805 551.678V555.667L1659.78 896.16Z" fill="#C8500D"/>
<path d="M1662.67 896.16H1660.97L1805 558.459V562.449L1662.67 896.16Z" fill="#C8500D"/>
<path d="M198 132.647V136.636L260.114 -9H258.413L198 132.647Z" fill="#BEBEBE"/>
<path d="M255.52 -9H257.222L198 129.854V125.865L255.52 -9Z" fill="#BEBEBE"/>
<path d="M252.628 -9H254.329L198 123.072V119.083L252.628 -9Z" fill="#BEBEBE"/>
<path d="M249.735 -9H251.437L198 116.291V112.302L249.735 -9Z" fill="#BEBEBE"/>
<path d="M246.843 -9H248.544L198 109.509V105.52L246.843 -9Z" fill="#BEBEBE"/>
<path d="M243.951 -9H245.652L198 102.727V98.738L243.951 -9Z" fill="#BEBEBE"/>
<path d="M241.058 -9H242.76L198 95.9456V91.9562L241.058 -9Z" fill="#BEBEBE"/>
<path d="M238.166 -9H239.867L198 89.1638V85.1744L238.166 -9Z" fill="#BEBEBE"/>
<path d="M235.273 -9H236.975L198 82.382V78.393L235.273 -9Z" fill="#BEBEBE"/>
<path d="M232.381 -9H234.082L198 75.6003V71.6112L232.381 -9Z" fill="#BEBEBE"/>
<path d="M229.488 -9H231.19L198 68.8188V64.8294L229.488 -9Z" fill="#BEBEBE"/>
<path d="M226.596 -9H228.297L198 62.037V58.0476L226.596 -9Z" fill="#BEBEBE"/>
<path d="M223.704 -9H225.405L198 55.2552V51.2662L223.704 -9Z" fill="#BEBEBE"/>
<path d="M220.811 -9H222.513L198 48.4734V44.4844L220.811 -9Z" fill="#BEBEBE"/>
<path d="M217.919 -9H219.62L198 41.692V37.7026L217.919 -9Z" fill="#BEBEBE"/>
<path d="M215.026 -9H216.728L198 34.9102V30.9208L215.026 -9Z" fill="#BEBEBE"/>
<path d="M212.134 -9H213.835L198 28.1284V24.139L212.134 -9Z" fill="#BEBEBE"/>
<path d="M209.241 -9H210.943L198 21.3466V17.3575L209.241 -9Z" fill="#BEBEBE"/>
<path d="M206.349 -9H208.05L198 14.5648V10.5757L206.349 -9Z" fill="#BEBEBE"/>
<path d="M203.457 -9H205.158L198 7.78334V3.79395L203.457 -9Z" fill="#BEBEBE"/>
<path d="M200.564 -9H202.266L198 1.00155V-2.98784L200.564 -9Z" fill="#BEBEBE"/>
<path d="M198 -5.78024L199.373 -9H198V-5.78024Z" fill="#BEBEBE"/>
<path d="M261.305 -9L198 139.428V143.417L263.007 -9H261.305Z" fill="#BEBEBE"/>
<path d="M264.198 -9L198 146.21V150.199L265.899 -9H264.198Z" fill="#BEBEBE"/>
<path d="M267.09 -9L198 152.992V156.981L268.791 -9H267.09Z" fill="#BEBEBE"/>
<path d="M269.982 -9L198 159.773V163.763L271.684 -9H269.982Z" fill="#BEBEBE"/>
<path d="M272.875 -9L198 166.555V170.545L274.576 -9H272.875Z" fill="#BEBEBE"/>
<path d="M275.767 -9L198 173.337V177.326L277.469 -9H275.767Z" fill="#BEBEBE"/>
<path d="M278.66 -9L198 180.119V184.108L280.361 -9H278.66Z" fill="#BEBEBE"/>
<path d="M281.552 -9L198 186.9V190.89L283.254 -9H281.552Z" fill="#BEBEBE"/>
<path d="M284.445 -9L198 193.682V197.671L286.146 -9H284.445Z" fill="#BEBEBE"/>
<path d="M287.337 -9L198 200.464V204.453L289.038 -9H287.337Z" fill="#BEBEBE"/>
<path d="M290.229 -9L198 207.246V211.235L291.931 -9H290.229Z" fill="#BEBEBE"/>
<path d="M293.122 -9L198 214.027V218.017L294.823 -9H293.122Z" fill="#BEBEBE"/>
<path d="M296.014 -9L198 220.809V224.798L297.716 -9H296.014Z" fill="#BEBEBE"/>
<path d="M298.907 -9L198 227.591V231.58L300.608 -9H298.907Z" fill="#BEBEBE"/>
<path d="M301.799 -9L198 234.373V238.362L303.501 -9H301.799Z" fill="#BEBEBE"/>
<path d="M304.692 -9L198 241.154V245.143L306.393 -9H304.692Z" fill="#BEBEBE"/>
<path d="M307.584 -9L198 247.936V251.925L309.285 -9H307.584Z" fill="#BEBEBE"/>
<path d="M310.476 -9L198 254.718V258.707L312.178 -9H310.476Z" fill="#BEBEBE"/>
<path d="M313.369 -9L198 261.499V265.489L315.07 -9H313.369Z" fill="#BEBEBE"/>
<path d="M316.261 -9L198 268.281V272.27L317.963 -9H316.261Z" fill="#BEBEBE"/>
<path d="M319.154 -9L198 275.063V279.052L320.855 -9H319.154Z" fill="#BEBEBE"/>
<path d="M322.046 -9L198 281.844V285.834L323.748 -9H322.046Z" fill="#BEBEBE"/>
<path d="M324.939 -9L198 288.626V292.616L326.64 -9H324.939Z" fill="#BEBEBE"/>
<path d="M327.831 -9L198 295.408V299.397L329.532 -9H327.831Z" fill="#BEBEBE"/>
<path d="M330.723 -9L198 302.19V306.179L332.425 -9H330.723Z" fill="#BEBEBE"/>
<path d="M333.616 -9L198 308.972V312.961L335.317 -9H333.616Z" fill="#BEBEBE"/>
<path d="M336.508 -9L198 315.753V319.742L338.21 -9H336.508Z" fill="#BEBEBE"/>
<path d="M339.401 -9L198 322.535V326.524L341.102 -9H339.401Z" fill="#BEBEBE"/>
<path d="M342.293 -9L198 329.317V333.306L343.995 -9H342.293Z" fill="#BEBEBE"/>
<path d="M345.186 -9L198 336.098V340.087L346.887 -9H345.186Z" fill="#BEBEBE"/>
<path d="M348.078 -9L198 342.88V346.869L349.779 -9H348.078Z" fill="#BEBEBE"/>
<path d="M350.97 -9L198 349.662V353.651L352.672 -9H350.97Z" fill="#BEBEBE"/>
<path d="M353.863 -9L198 356.443V360.433L355.564 -9H353.863Z" fill="#BEBEBE"/>
<path d="M356.755 -9L198 363.225V367.215L358.457 -9H356.755Z" fill="#BEBEBE"/>
<path d="M359.648 -9L198 370.007V373.996L361.349 -9H359.648Z" fill="#BEBEBE"/>
<path d="M362.54 -9L198 376.789V380.778L364.242 -9H362.54Z" fill="#BEBEBE"/>
<path d="M365.433 -9L198 383.57V387.56L367.134 -9H365.433Z" fill="#BEBEBE"/>
<path d="M368.325 -9L198 390.352V394.341L370.026 -9H368.325Z" fill="#BEBEBE"/>
<path d="M371.217 -9L198 397.134V401.123L372.919 -9H371.217Z" fill="#BEBEBE"/>
<path d="M374.11 -9L198 403.916V407.905L375.811 -9H374.11Z" fill="#BEBEBE"/>
<path d="M377.002 -9L198 410.697V414.686L378.704 -9H377.002Z" fill="#BEBEBE"/>
<path d="M379.895 -9L198 417.479V421.468L381.596 -9H379.895Z" fill="#BEBEBE"/>
<path d="M382.787 -9L198 424.261V428.25L384.489 -9H382.787Z" fill="#BEBEBE"/>
<path d="M385.68 -9L198 431.042V435.032L387.381 -9H385.68Z" fill="#BEBEBE"/>
<path d="M388.572 -9L198 437.824V441.813L390.273 -9H388.572Z" fill="#BEBEBE"/>
<path d="M391.464 -9L198 444.606V448.595L393.166 -9H391.464Z" fill="#BEBEBE"/>
<path d="M394.357 -9L198 451.388V455.377L396.058 -9H394.357Z" fill="#BEBEBE"/>
<path d="M397.249 -9L198 458.169V462.159L398.951 -9H397.249Z" fill="#BEBEBE"/>
<path d="M400.142 -9L198 464.951V468.94L401.843 -9H400.142Z" fill="#BEBEBE"/>
<path d="M403.034 -9L198 471.733V475.722L404.736 -9H403.034Z" fill="#BEBEBE"/>
<path d="M405.927 -9L198 478.514V482.504L407.628 -9H405.927Z" fill="#BEBEBE"/>
<path d="M408.819 -9L198 485.296V489.286L410.52 -9H408.819Z" fill="#BEBEBE"/>
<path d="M411.711 -9L198 492.078V496.067L413.413 -9H411.711Z" fill="#BEBEBE"/>
<path d="M414.604 -9L198 498.86V502.849L416.305 -9H414.604Z" fill="#BEBEBE"/>
<path d="M417.496 -9L198 505.642V509.631L419.198 -9H417.496Z" fill="#BEBEBE"/>
<path d="M420.389 -9L198 512.423V516.412L422.09 -9H420.389Z" fill="#BEBEBE"/>
<path d="M423.281 -9L198 519.205V523.194L424.983 -9H423.281Z" fill="#BEBEBE"/>
<path d="M426.174 -9L198 525.987V529.976L427.875 -9H426.174Z" fill="#BEBEBE"/>
<path d="M429.066 -9L198 532.768V536.757L430.767 -9H429.066Z" fill="#BEBEBE"/>
<path d="M431.958 -9L198 539.55V543.539L433.66 -9H431.958Z" fill="#BEBEBE"/>
<path d="M434.851 -9L198 546.332V550.321L436.552 -9H434.851Z" fill="#BEBEBE"/>
<path d="M437.743 -9L198 553.113V557.103L439.445 -9H437.743Z" fill="#BEBEBE"/>
<path d="M440.636 -9L198 559.895V563.884L442.337 -9H440.636Z" fill="#BEBEBE"/>
<path d="M443.528 -9L198 566.677V570.666L445.23 -9H443.528Z" fill="#BEBEBE"/>
<path d="M446.421 -9L198 573.458V577.448L448.122 -9H446.421Z" fill="#BEBEBE"/>
<path d="M449.313 -9L198 580.24V584.23L451.015 -9H449.313Z" fill="#BEBEBE"/>
<path d="M452.206 -9L198 587.022V591.011L453.907 -9H452.206Z" fill="#BEBEBE"/>
<path d="M455.098 -9L198 593.804V597.793L456.799 -9H455.098Z" fill="#BEBEBE"/>
<path d="M457.99 -9L198 600.586V604.575L459.692 -9H457.99Z" fill="#BEBEBE"/>
<path d="M460.883 -9L198 607.367V611.356L462.584 -9H460.883Z" fill="#BEBEBE"/>
<path d="M463.775 -9L198 614.149V618.138L465.477 -9H463.775Z" fill="#BEBEBE"/>
<path d="M466.668 -9L198 620.931V624.92L468.369 -9H466.668Z" fill="#BEBEBE"/>
<path d="M469.56 -9L198 627.712V631.701L471.262 -9H469.56Z" fill="#BEBEBE"/>
<path d="M667.68 -9H669.381L476.354 443.58H474.652L667.68 -9Z" fill="#BEBEBE"/>
<path d="M664.787 -9H666.489L473.461 443.58H471.76L664.787 -9Z" fill="#BEBEBE"/>
<path d="M661.895 -9H663.596L470.569 443.58H468.868L661.895 -9Z" fill="#BEBEBE"/>
<path d="M659.002 -9H660.704L467.677 443.58H465.975L659.002 -9Z" fill="#BEBEBE"/>
<path d="M656.11 -9H657.811L464.784 443.58H463.083L656.11 -9Z" fill="#BEBEBE"/>
<path d="M653.217 -9H654.919L461.892 443.58H460.19L653.217 -9Z" fill="#BEBEBE"/>
<path d="M650.325 -9H652.026L458.999 443.58H457.298L650.325 -9Z" fill="#BEBEBE"/>
<path d="M647.433 -9H649.134L456.107 443.58H454.405L647.433 -9Z" fill="#BEBEBE"/>
<path d="M644.54 -9H646.242L453.214 443.58H451.513L644.54 -9Z" fill="#BEBEBE"/>
<path d="M641.648 -9H643.349L450.322 443.58H448.621L641.648 -9Z" fill="#BEBEBE"/>
<path d="M638.755 -9H640.457L447.43 443.58H445.728L638.755 -9Z" fill="#BEBEBE"/>
<path d="M635.863 -9H637.564L444.537 443.58H442.836L635.863 -9Z" fill="#BEBEBE"/>
<path d="M632.97 -9H634.672L441.645 443.58H439.943L632.97 -9Z" fill="#BEBEBE"/>
<path d="M630.078 -9H631.779L438.752 443.58H437.051L630.078 -9Z" fill="#BEBEBE"/>
<path d="M627.186 -9H628.887L435.86 443.58H434.158L627.186 -9Z" fill="#BEBEBE"/>
<path d="M624.293 -9H625.995L432.967 443.58H431.266L624.293 -9Z" fill="#BEBEBE"/>
<path d="M621.401 -9H623.102L430.075 443.58H428.374L621.401 -9Z" fill="#BEBEBE"/>
<path d="M618.508 -9H620.21L427.183 443.58H425.481L618.508 -9Z" fill="#BEBEBE"/>
<path d="M615.616 -9H617.317L424.29 443.58H422.589L615.616 -9Z" fill="#BEBEBE"/>
<path d="M612.723 -9H614.425L421.398 443.58H419.696L612.723 -9Z" fill="#BEBEBE"/>
<path d="M609.831 -9H611.532L418.505 443.58H416.804L609.831 -9Z" fill="#BEBEBE"/>
<path d="M606.939 -9H608.64L415.613 443.58H413.911L606.939 -9Z" fill="#BEBEBE"/>
<path d="M604.046 -9H605.748L412.72 443.58H411.019L604.046 -9Z" fill="#BEBEBE"/>
<path d="M601.154 -9H602.855L409.828 443.58H408.126L601.154 -9Z" fill="#BEBEBE"/>
<path d="M598.261 -9H599.963L406.935 443.58H405.234L598.261 -9Z" fill="#BEBEBE"/>
<path d="M595.369 -9H597.07L404.043 443.58H402.342L595.369 -9Z" fill="#BEBEBE"/>
<path d="M592.476 -9H594.178L401.151 443.58H399.449L592.476 -9Z" fill="#BEBEBE"/>
<path d="M589.584 -9H591.285L398.258 443.58H396.557L589.584 -9Z" fill="#BEBEBE"/>
<path d="M586.692 -9H588.393L395.366 443.58H393.664L586.692 -9Z" fill="#BEBEBE"/>
<path d="M583.799 -9H585.501L392.473 443.58H390.772L583.799 -9Z" fill="#BEBEBE"/>
<path d="M580.907 -9H582.608L389.581 443.58H387.879L580.907 -9Z" fill="#BEBEBE"/>
<path d="M578.014 -9H579.716L386.688 443.58H384.987L578.014 -9Z" fill="#BEBEBE"/>
<path d="M575.122 -9H576.823L383.796 443.58H382.095L575.122 -9Z" fill="#BEBEBE"/>
<path d="M572.229 -9H573.931L380.904 443.58H379.202L572.229 -9Z" fill="#BEBEBE"/>
<path d="M569.337 -9H571.038L378.011 443.58H376.31L569.337 -9Z" fill="#BEBEBE"/>
<path d="M566.444 -9H568.146L375.119 443.58H373.417L566.444 -9Z" fill="#BEBEBE"/>
<path d="M563.552 -9H565.253L372.226 443.58H370.525L563.552 -9Z" fill="#BEBEBE"/>
<path d="M560.66 -9H562.361L369.334 443.58H367.632L560.66 -9Z" fill="#BEBEBE"/>
<path d="M557.767 -9H559.469L366.441 443.58H364.74L557.767 -9Z" fill="#BEBEBE"/>
<path d="M554.875 -9H556.576L363.549 443.58H361.848L554.875 -9Z" fill="#BEBEBE"/>
<path d="M551.982 -9H553.684L360.657 443.58H358.955L551.982 -9Z" fill="#BEBEBE"/>
<path d="M549.09 -9H550.791L357.764 443.58H356.063L549.09 -9Z" fill="#BEBEBE"/>
<path d="M546.197 -9H547.899L354.872 443.58H353.17L546.197 -9Z" fill="#BEBEBE"/>
<path d="M543.305 -9H545.006L351.979 443.58H350.278L543.305 -9Z" fill="#BEBEBE"/>
<path d="M540.413 -9H542.114L349.087 443.58H347.385L540.413 -9Z" fill="#BEBEBE"/>
<path d="M537.52 -9H539.222L346.194 443.58H344.493L537.52 -9Z" fill="#BEBEBE"/>
<path d="M534.628 -9H536.329L343.302 443.58H341.601L534.628 -9Z" fill="#BEBEBE"/>
<path d="M531.735 -9H533.437L340.41 443.58H338.708L531.735 -9Z" fill="#BEBEBE"/>
<path d="M528.843 -9H530.544L337.517 443.58H335.816L528.843 -9Z" fill="#BEBEBE"/>
<path d="M525.95 -9H527.652L334.625 443.58H332.923L525.95 -9Z" fill="#BEBEBE"/>
<path d="M523.058 -9H524.759L331.732 443.58H330.031L523.058 -9Z" fill="#BEBEBE"/>
<path d="M520.166 -9H521.867L328.84 443.58H327.138L520.166 -9Z" fill="#BEBEBE"/>
<path d="M517.273 -9H518.975L325.947 443.58H324.246L517.273 -9Z" fill="#BEBEBE"/>
<path d="M514.381 -9H516.082L323.055 443.58H321.354L514.381 -9Z" fill="#BEBEBE"/>
<path d="M511.488 -9H513.19L320.163 443.58H318.461L511.488 -9Z" fill="#BEBEBE"/>
<path d="M508.596 -9H510.297L317.27 443.58H315.569L508.596 -9Z" fill="#BEBEBE"/>
<path d="M505.703 -9H507.405L314.378 443.58H312.676L505.703 -9Z" fill="#BEBEBE"/>
<path d="M502.811 -9H504.512L311.485 443.58H309.784L502.811 -9Z" fill="#BEBEBE"/>
<path d="M499.919 -9H501.62L308.593 443.58H306.891L499.919 -9Z" fill="#BEBEBE"/>
<path d="M498.728 -9L305.7 443.58H303.999L497.026 -9H498.728Z" fill="#BEBEBE"/>
<path fill-rule="evenodd" clip-rule="evenodd" d="M455.066 886.633H453.364L808.288 54.4639H809.989L455.066 886.633ZM457.958 886.633H456.257L811.18 54.4639H812.881L457.958 886.633ZM460.851 886.633H459.149L814.072 54.4639H815.774L460.851 886.633ZM463.743 886.633H462.042L816.965 54.4639H818.666L463.743 886.633ZM466.635 886.633H464.934L819.857 54.4639H821.559L466.635 886.633ZM469.528 886.633H467.826L822.75 54.4639H824.451L469.528 886.633ZM472.42 886.633H470.719L825.642 54.4639H827.344L472.42 886.633ZM475.313 886.633H473.611L828.535 54.4639H830.236L475.313 886.633ZM478.205 886.633H476.504L831.427 54.4639H833.128L478.205 886.633ZM481.098 886.633H479.396L834.319 54.4639H836.021L481.098 886.633ZM483.99 886.633H482.289L837.212 54.4639H838.913L483.99 886.633ZM486.882 886.633H485.181L840.104 54.4639H841.806L486.882 886.633ZM489.775 886.633H488.073L842.997 54.4639H844.698L489.775 886.633ZM492.667 886.633H490.966L845.889 54.4639H847.591L492.667 886.633ZM495.56 886.633H493.858L848.782 54.4639H850.483L495.56 886.633ZM498.452 886.633H496.751L851.674 54.4639H853.375L498.452 886.633ZM501.345 886.633H499.643L854.566 54.4639H856.268L501.345 886.633ZM504.237 886.633H502.536L857.459 54.4639H859.16L504.237 886.633ZM507.129 886.633H505.428L860.351 54.4639H862.053L507.129 886.633ZM510.022 886.633H508.32L863.244 54.4639H864.945L510.022 886.633ZM512.914 886.633H511.213L866.136 54.4639H867.838L512.914 886.633ZM515.807 886.633H514.105L869.029 54.4639H870.73L515.807 886.633ZM518.699 886.633H516.998L871.921 54.4639H873.622L518.699 886.633ZM521.592 886.633H519.89L874.813 54.4639H876.515L521.592 886.633ZM524.484 886.633H522.783L877.706 54.4639H879.407L524.484 886.633ZM527.376 886.633H525.675L880.598 54.4639H882.3L527.376 886.633ZM530.269 886.633H528.567L883.491 54.4639H885.192L530.269 886.633ZM533.161 886.633H531.46L886.383 54.4639H888.085L533.161 886.633ZM536.054 886.633H534.352L889.276 54.4639H890.977L536.054 886.633ZM538.946 886.633H537.245L892.168 54.4639H893.869L538.946 886.633ZM541.839 886.633H540.137L895.06 54.4639H896.762L541.839 886.633ZM544.731 886.633H543.03L897.953 54.4639H899.654L544.731 886.633ZM547.623 886.633H545.922L900.845 54.4639H902.547L547.623 886.633ZM550.516 886.633H548.814L903.738 54.4639H905.439L550.516 886.633ZM553.408 886.633H551.707L906.63 54.4639H908.332L553.408 886.633ZM556.301 886.633H554.599L909.523 54.4639H911.224L556.301 886.633ZM559.193 886.633H557.492L912.415 54.4639H914.116L559.193 886.633ZM562.086 886.633H560.384L915.307 54.4639H917.009L562.086 886.633ZM564.978 886.633H563.277L918.2 54.4639H919.901L564.978 886.633ZM567.87 886.633H566.169L921.092 54.4639H922.794L567.87 886.633ZM570.763 886.633H569.061L923.985 54.4639H925.686L570.763 886.633ZM573.655 886.633H571.954L926.877 54.4639H928.579L573.655 886.633ZM576.548 886.633H574.846L929.77 54.4639H931.471L576.548 886.633ZM579.44 886.633H577.739L932.662 54.4639H934.363L579.44 886.633ZM582.333 886.633H580.631L935.554 54.4639H937.256L582.333 886.633ZM585.225 886.633H583.524L938.447 54.4639H940.148L585.225 886.633ZM588.117 886.633H586.416L941.339 54.4639H943.041L588.117 886.633ZM591.01 886.633H589.308L944.232 54.4639H945.933L591.01 886.633ZM593.902 886.633H592.201L947.124 54.4639H948.826L593.902 886.633ZM596.795 886.633H595.093L950.017 54.4639H951.718L596.795 886.633ZM599.687 886.633H597.986L952.909 54.4639H954.61L599.687 886.633ZM602.58 886.633H600.878L955.801 54.4639H957.503L602.58 886.633ZM605.472 886.633H603.771L958.694 54.4639H960.395L605.472 886.633ZM608.364 886.633H606.663L961.586 54.4639H963.288L608.364 886.633ZM611.257 886.633H609.555L964.479 54.4639H966.18L611.257 886.633ZM614.149 886.633H612.448L967.371 54.4639H969.073L614.149 886.633ZM617.042 886.633H615.34L970.264 54.4639H971.965L617.042 886.633ZM619.934 886.633H618.233L973.156 54.4639H974.857L619.934 886.633ZM622.827 886.633H621.125L976.048 54.4639H977.75L622.827 886.633ZM625.719 886.633H624.018L978.941 54.4639H980.642L625.719 886.633ZM628.611 886.633H626.91L981.833 54.4639H983.535L628.611 886.633ZM631.504 886.633H629.802L984.726 54.4639H986.427L631.504 886.633ZM634.396 886.633H632.695L987.618 54.4639H989.32L634.396 886.633ZM637.289 886.633H635.587L990.511 54.4639H992.212L637.289 886.633ZM640.181 886.633H638.48L993.403 54.4639H995.104L640.181 886.633ZM643.074 886.633H641.372L996.295 54.4639H997.997L643.074 886.633ZM645.966 886.633H644.265L999.188 54.4639H1000.89L645.966 886.633ZM648.858 886.633H647.157L1002.08 54.4639H1003.78L648.858 886.633ZM651.751 886.633H650.049L1004.97 54.4639H1006.67L651.751 886.633ZM654.643 886.633H652.942L1007.87 54.4639H1009.57L654.643 886.633ZM657.536 886.633H655.834L1010.76 54.4639H1012.46L657.536 886.633ZM660.428 886.633H658.727L1013.65 54.4639H1015.35L660.428 886.633ZM663.321 886.633H661.619L1016.54 54.4639H1018.24L663.321 886.633ZM666.213 886.633H664.512L1019.43 54.4639H1021.14L666.213 886.633ZM669.105 886.633H667.404L1022.33 54.4639H1024.03L669.105 886.633ZM671.998 886.633H670.296L1025.22 54.4639H1026.92L671.998 886.633ZM674.89 886.633H673.189L1028.11 54.4639H1029.81L674.89 886.633ZM677.783 886.633H676.081L1031 54.4639H1032.71L677.783 886.633ZM680.675 886.633H678.974L1033.9 54.4639H1035.6L680.675 886.633ZM683.568 886.633H681.866L1036.79 54.4639H1038.49L683.568 886.633ZM686.46 886.633H684.759L1039.68 54.4639H1041.38L686.46 886.633ZM689.353 886.633H687.651L1042.57 54.4639H1044.28L689.353 886.633ZM692.245 886.633H690.544L1045.47 54.4639H1047.17L692.245 886.633ZM695.137 886.633H693.436L1048.36 54.4639H1050.06L695.137 886.633ZM698.03 886.633H696.328L1051.25 54.4639H1052.95L698.03 886.633ZM700.922 886.633H699.221L1054.14 54.4639H1055.85L700.922 886.633ZM703.815 886.633H702.113L1057.04 54.4639H1058.74L703.815 886.633ZM706.707 886.633H705.006L1059.93 54.4639H1061.63L706.707 886.633ZM709.6 886.633H707.898L1062.82 54.4639H1064.52L709.6 886.633ZM712.492 886.633H710.791L1065.71 54.4639H1067.42L712.492 886.633ZM715.384 886.633H713.683L1068.61 54.4639H1070.31L715.384 886.633ZM718.277 886.633H716.575L1071.5 54.4639H1073.2L718.277 886.633ZM721.169 886.633H719.468L1074.39 54.4639H1076.09L721.169 886.633ZM724.062 886.633H722.36L1077.28 54.4639H1078.98L724.062 886.633ZM726.954 886.633H725.253L1080.18 54.4639H1081.88L726.954 886.633ZM729.847 886.633H728.145L1083.07 54.4639H1084.77L729.847 886.633Z" fill="#BEBEBE"/>
<path d="M2556 899.5L726.003 899.5L1110.5 -0.000126369L2556 0L2556 899.5Z" fill="#FFD194"/>
<path d="M-194 0H1133.5L749 899.5H-194V0Z" fill="#D9D9D9"/>
<path d="M1206.05 -9H1135.15L749.093 896.16H820L1206.05 -9Z" fill="#E07F09" fill-opacity="0.9"/>
<path d="M1199 -9H1206.05L820 896.16H812.946L1199 -9Z" fill="#E07F09" fill-opacity="0.9"/>
<path d="M1136.85 -9H1135.15L749.093 896.16H750.794L1136.85 -9Z" fill="#C8500D" fill-opacity="0.6"/>
<path d="M1142.63 -9H1140.93L754.878 896.16H756.579L1142.63 -9Z" fill="#C8500D" fill-opacity="0.6"/>
<path d="M1148.42 -9H1146.72L760.662 896.16H762.364L1148.42 -9Z" fill="#C8500D" fill-opacity="0.6"/>
<path d="M1154.2 -9H1152.5L766.447 896.16H768.149L1154.2 -9Z" fill="#C8500D" fill-opacity="0.6"/>
<path d="M1159.99 -9H1158.29L772.232 896.16H773.934L1159.99 -9Z" fill="#C8500D" fill-opacity="0.6"/>
<path d="M1165.77 -9H1164.07L778.017 896.16H779.718L1165.77 -9Z" fill="#C8500D" fill-opacity="0.6"/>
<path d="M1171.56 -9H1169.86L783.802 896.16H785.503L1171.56 -9Z" fill="#C8500D" fill-opacity="0.6"/>
<path d="M1865.05 -9H1244L857.945 896.16H1479L1865.05 -9Z" fill="#E07F09" fill-opacity="0.9"/>
<path d="M1230.05 -9H1205.5L819.445 896.16H844L1230.05 -9Z" fill="#E07F09" fill-opacity="0.9"/>
<path d="M1982.01 -9H1878.55L1492.5 896.16H1595.96L1982.01 -9Z" fill="#E07F09" fill-opacity="0.9"/>
<path d="M1653.99 896.16H1652.29L1805 538.114V542.103L1653.99 896.16Z" fill="#C8500D" fill-opacity="0.6"/>
<path d="M1659.78 896.16H1658.08L1805 551.678V555.667L1659.78 896.16Z" fill="#C8500D" fill-opacity="0.6"/>
<path d="M1665.7 896.16H1664L1816.71 538.114V542.103L1665.7 896.16Z" fill="#C8500D" fill-opacity="0.6"/>
<path d="M1671.49 896.16H1669.78L1816.71 551.678V555.667L1671.49 896.16Z" fill="#C8500D" fill-opacity="0.6"/>
<path d="M765.68 -9H767.381L574.354 443.58H572.652L765.68 -9Z" fill="#BEBEBE"/>
<path d="M759.895 -9H761.596L568.569 443.58H566.868L759.895 -9Z" fill="#BEBEBE"/>
<path d="M754.11 -9H755.811L562.784 443.58H561.083L754.11 -9Z" fill="#BEBEBE"/>
<path d="M748.325 -9H750.026L556.999 443.58H555.298L748.325 -9Z" fill="#BEBEBE"/>
<path d="M742.54 -9H744.242L551.214 443.58H549.513L742.54 -9Z" fill="#BEBEBE"/>
<path d="M736.755 -9H738.457L545.43 443.58H543.728L736.755 -9Z" fill="#BEBEBE"/>
<path d="M730.97 -9H732.672L539.645 443.58H537.943L730.97 -9Z" fill="#BEBEBE"/>
<path d="M725.186 -9H726.887L533.86 443.58H532.158L725.186 -9Z" fill="#BEBEBE"/>
<path d="M719.401 -9H721.102L528.075 443.58H526.374L719.401 -9Z" fill="#BEBEBE"/>
<path d="M713.616 -9H715.317L522.29 443.58H520.589L713.616 -9Z" fill="#BEBEBE"/>
<path d="M707.831 -9H709.532L516.505 443.58H514.804L707.831 -9Z" fill="#BEBEBE"/>
<path d="M702.046 -9H703.748L510.72 443.58H509.019L702.046 -9Z" fill="#BEBEBE"/>
<path d="M696.261 -9H697.963L504.936 443.58H503.234L696.261 -9Z" fill="#BEBEBE"/>
<path d="M690.476 -9H692.178L499.151 443.58H497.449L690.476 -9Z" fill="#BEBEBE"/>
<path d="M684.691 -9H686.393L493.366 443.58H491.664L684.691 -9Z" fill="#BEBEBE"/>
<path d="M678.907 -9H680.608L487.581 443.58H485.879L678.907 -9Z" fill="#BEBEBE"/>
<path d="M673.122 -9H674.823L481.796 443.58H480.095L673.122 -9Z" fill="#BEBEBE"/>
<path d="M667.337 -9H669.038L476.011 443.58H474.31L667.337 -9Z" fill="#BEBEBE"/>
<path d="M661.552 -9H663.254L470.226 443.58H468.525L661.552 -9Z" fill="#BEBEBE"/>
<path d="M655.767 -9H657.469L464.441 443.58H462.74L655.767 -9Z" fill="#BEBEBE"/>
<path d="M649.982 -9H651.684L458.657 443.58H456.955L649.982 -9Z" fill="#BEBEBE"/>
<path d="M644.197 -9H645.899L452.872 443.58H451.17L644.197 -9Z" fill="#BEBEBE"/>
<path d="M638.413 -9H640.114L447.087 443.58H445.385L638.413 -9Z" fill="#BEBEBE"/>
<path d="M632.628 -9H634.329L441.302 443.58H439.601L632.628 -9Z" fill="#BEBEBE"/>
<path d="M626.843 -9H628.544L435.517 443.58H433.816L626.843 -9Z" fill="#BEBEBE"/>
<path d="M621.058 -9H622.759L429.732 443.58H428.031L621.058 -9Z" fill="#BEBEBE"/>
<path d="M615.273 -9H616.975L423.947 443.58H422.246L615.273 -9Z" fill="#BEBEBE"/>
<path d="M609.488 -9H611.19L418.163 443.58H416.461L609.488 -9Z" fill="#BEBEBE"/>
<path d="M603.703 -9H605.405L412.378 443.58H410.676L603.703 -9Z" fill="#BEBEBE"/>
<path d="M597.919 -9H599.62L406.593 443.58H404.891L597.919 -9Z" fill="#BEBEBE"/>
<path d="M813.514 74.4639H811.813L425.758 979.624H427.46L813.514 74.4639Z" fill="#BEBEBE"/>
<path d="M819.299 74.4639H817.597L431.543 979.624H433.245L819.299 74.4639Z" fill="#BEBEBE"/>
<path d="M825.084 74.4639H823.382L437.328 979.624H439.029L825.084 74.4639Z" fill="#BEBEBE"/>
<path d="M830.869 74.4639H829.167L443.113 979.624H444.814L830.869 74.4639Z" fill="#BEBEBE"/>
<path d="M836.654 74.4639H834.952L448.898 979.624H450.599L836.654 74.4639Z" fill="#BEBEBE"/>
<path d="M842.438 74.4639H840.737L454.683 979.624H456.384L842.438 74.4639Z" fill="#BEBEBE"/>
<path d="M848.223 74.4639H846.522L460.467 979.624H462.169L848.223 74.4639Z" fill="#BEBEBE"/>
<path d="M854.008 74.4639H852.307L466.252 979.624H467.954L854.008 74.4639Z" fill="#BEBEBE"/>
<path d="M859.793 74.4639H858.091L472.037 979.624H473.739L859.793 74.4639Z" fill="#BEBEBE"/>
<path d="M865.578 74.4639H863.876L477.822 979.624H479.523L865.578 74.4639Z" fill="#BEBEBE"/>
<path d="M871.363 74.4639H869.661L483.607 979.624H485.308L871.363 74.4639Z" fill="#BEBEBE"/>
<path d="M877.148 74.4639H875.446L489.392 979.624H491.093L877.148 74.4639Z" fill="#BEBEBE"/>
<path d="M882.932 74.4639H881.231L495.177 979.624H496.878L882.932 74.4639Z" fill="#BEBEBE"/>
<path d="M749.881 74.4639H748.179L362.125 979.624H363.826L749.881 74.4639Z" fill="#BEBEBE"/>
<path d="M755.665 74.4639H753.964L367.91 979.624H369.611L755.665 74.4639Z" fill="#BEBEBE"/>
<path d="M761.45 74.4639H759.749L373.695 979.624H375.396L761.45 74.4639Z" fill="#BEBEBE"/>
<path d="M767.235 74.4639H765.534L379.479 979.624H381.181L767.235 74.4639Z" fill="#BEBEBE"/>
<path d="M773.02 74.4639H771.319L385.264 979.624H386.966L773.02 74.4639Z" fill="#BEBEBE"/>
<path d="M778.805 74.4639H777.103L391.049 979.624H392.751L778.805 74.4639Z" fill="#BEBEBE"/>
<path d="M784.59 74.4639H782.888L396.834 979.624H398.535L784.59 74.4639Z" fill="#BEBEBE"/>
<path d="M790.375 74.4639H788.673L402.619 979.624H404.32L790.375 74.4639Z" fill="#BEBEBE"/>
<path d="M796.159 74.4639H794.458L408.404 979.624H410.105L796.159 74.4639Z" fill="#BEBEBE"/>
<path d="M801.944 74.4639H800.243L414.189 979.624H415.89L801.944 74.4639Z" fill="#BEBEBE"/>
<path d="M807.729 74.4639H806.028L419.973 979.624H421.675L807.729 74.4639Z" fill="#BEBEBE"/>
<path d="M813.514 74.4639H811.813L425.758 979.624H427.46L813.514 74.4639Z" fill="#BEBEBE"/>
<path d="M819.299 74.4639H817.597L431.543 979.624H433.245L819.299 74.4639Z" fill="#BEBEBE"/>
<path d="M952.351 74.4639H950.649L564.595 979.624H566.296L952.351 74.4639Z" fill="#BEBEBE"/>
<path d="M958.136 74.4639H956.434L570.38 979.624H572.081L958.136 74.4639Z" fill="#BEBEBE"/>
<path d="M963.92 74.4639H962.219L576.165 979.624H577.866L963.92 74.4639Z" fill="#BEBEBE"/>
<path d="M969.705 74.4639H968.004L581.95 979.624H583.651L969.705 74.4639Z" fill="#BEBEBE"/>
<path d="M975.49 74.4639H973.789L587.734 979.624H589.436L975.49 74.4639Z" fill="#BEBEBE"/>
<path d="M981.275 74.4639H979.574L593.519 979.624H595.221L981.275 74.4639Z" fill="#BEBEBE"/>
<path d="M987.06 74.4639H985.358L599.304 979.624H601.006L987.06 74.4639Z" fill="#BEBEBE"/>
<path d="M992.845 74.4639H991.143L605.089 979.624H606.79L992.845 74.4639Z" fill="#BEBEBE"/>
<path d="M998.63 74.4639H996.928L610.874 979.624H612.575L998.63 74.4639Z" fill="#BEBEBE"/>
<path d="M1004.41 74.4639H1002.71L616.659 979.624H618.36L1004.41 74.4639Z" fill="#BEBEBE"/>
<path d="M1010.2 74.4639H1008.5L622.444 979.624H624.145L1010.2 74.4639Z" fill="#BEBEBE"/>
<path d="M1015.98 74.4639H1014.28L628.228 979.624H629.93L1015.98 74.4639Z" fill="#BEBEBE"/>
<path d="M1021.77 74.4639H1020.07L634.013 979.624H635.715L1021.77 74.4639Z" fill="#BEBEBE"/>
<path d="M888.717 74.4639H887.016L500.961 979.624H502.663L888.717 74.4639Z" fill="#BEBEBE"/>
<path d="M894.502 74.4639H892.801L506.746 979.624H508.448L894.502 74.4639Z" fill="#BEBEBE"/>
<path d="M900.287 74.4639H898.586L512.531 979.624H514.233L900.287 74.4639Z" fill="#BEBEBE"/>
<path d="M906.072 74.4639H904.37L518.316 979.624H520.018L906.072 74.4639Z" fill="#BEBEBE"/>
<path d="M911.857 74.4639H910.155L524.101 979.624H525.802L911.857 74.4639Z" fill="#BEBEBE"/>
<path d="M917.642 74.4639H915.94L529.886 979.624H531.587L917.642 74.4639Z" fill="#BEBEBE"/>
<path d="M923.426 74.4639H921.725L535.671 979.624H537.372L923.426 74.4639Z" fill="#BEBEBE"/>
<path d="M929.211 74.4639H927.51L541.456 979.624H543.157L929.211 74.4639Z" fill="#BEBEBE"/>
<path d="M934.996 74.4639H933.295L547.24 979.624H548.942L934.996 74.4639Z" fill="#BEBEBE"/>
<path d="M940.781 74.4639H939.08L553.025 979.624H554.727L940.781 74.4639Z" fill="#BEBEBE"/>
<path d="M946.566 74.4639H944.864L558.81 979.624H560.512L946.566 74.4639Z" fill="#BEBEBE"/>
<path d="M952.351 74.4639H950.649L564.595 979.624H566.296L952.351 74.4639Z" fill="#BEBEBE"/>
<path d="M958.136 74.4639H956.434L570.38 979.624H572.081L958.136 74.4639Z" fill="#BEBEBE"/>
<path d="M462.282 -273H460.58L74.5259 632.16H76.2273L462.282 -273Z" fill="#BEBEBE"/>
<path d="M468.066 -273H466.365L80.3107 632.16H82.0122L468.066 -273Z" fill="#BEBEBE"/>
<path d="M473.851 -273H472.15L86.0956 632.16H87.797L473.851 -273Z" fill="#BEBEBE"/>
<path d="M479.636 -273H477.935L91.8805 632.16H93.5819L479.636 -273Z" fill="#BEBEBE"/>
<path d="M485.421 -273H483.72L97.6653 632.16H99.3668L485.421 -273Z" fill="#BEBEBE"/>
<path d="M491.206 -273H489.505L103.45 632.16H105.152L491.206 -273Z" fill="#BEBEBE"/>
<path d="M496.991 -273H495.289L109.235 632.16H110.936L496.991 -273Z" fill="#BEBEBE"/>
<path d="M502.776 -273H501.074L115.02 632.16H116.721L502.776 -273Z" fill="#BEBEBE"/>
<path d="M508.561 -273H506.859L120.805 632.16H122.506L508.561 -273Z" fill="#BEBEBE"/>
<path d="M514.345 -273H512.644L126.59 632.16H128.291L514.345 -273Z" fill="#BEBEBE"/>
<path d="M520.13 -273H518.429L132.374 632.16H134.076L520.13 -273Z" fill="#BEBEBE"/>
<path d="M525.915 -273H524.214L138.159 632.16H139.861L525.915 -273Z" fill="#BEBEBE"/>
<path d="M531.7 -273H529.999L143.944 632.16H145.646L531.7 -273Z" fill="#BEBEBE"/>
<path d="M398.648 -273H396.947L10.8924 632.16H12.5939L398.648 -273Z" fill="#BEBEBE"/>
<path d="M404.433 -273H402.732L16.6773 632.16H18.3787L404.433 -273Z" fill="#BEBEBE"/>
<path d="M410.218 -273H408.516L22.4621 632.16H24.1636L410.218 -273Z" fill="#BEBEBE"/>
<path d="M416.003 -273H414.301L28.247 632.16H29.9484L416.003 -273Z" fill="#BEBEBE"/>
<path d="M421.788 -273H420.086L34.0319 632.16H35.7333L421.788 -273Z" fill="#BEBEBE"/>
<path d="M427.572 -273H425.871L39.8167 632.16H41.5182L427.572 -273Z" fill="#BEBEBE"/>
<path d="M433.357 -273H431.656L45.6016 632.16H47.303L433.357 -273Z" fill="#BEBEBE"/>
<path d="M439.142 -273H437.441L51.3864 632.16H53.0879L439.142 -273Z" fill="#BEBEBE"/>
<path d="M444.927 -273H443.226L57.1713 632.16H58.8727L444.927 -273Z" fill="#BEBEBE"/>
<path d="M450.712 -273H449.01L62.9562 632.16H64.6576L450.712 -273Z" fill="#BEBEBE"/>
<path d="M456.497 -273H454.795L68.741 632.16H70.4425L456.497 -273Z" fill="#BEBEBE"/>
<path d="M462.282 -273H460.58L74.5259 632.16H76.2273L462.282 -273Z" fill="#BEBEBE"/>
<path d="M468.066 -273H466.365L80.3107 632.16H82.0122L468.066 -273Z" fill="#BEBEBE"/>
<path d="M601.118 -273H599.417L213.363 632.16H215.064L601.118 -273Z" fill="#BEBEBE"/>
<path d="M606.903 -273H605.202L219.147 632.16H220.849L606.903 -273Z" fill="#BEBEBE"/>
<path d="M612.688 -273H610.987L224.932 632.16H226.634L612.688 -273Z" fill="#BEBEBE"/>
<path d="M618.473 -273H616.771L230.717 632.16H232.419L618.473 -273Z" fill="#BEBEBE"/>
<path d="M624.258 -273H622.556L236.502 632.16H238.203L624.258 -273Z" fill="#BEBEBE"/>
<path d="M630.043 -273H628.341L242.287 632.16H243.988L630.043 -273Z" fill="#BEBEBE"/>
<path d="M635.827 -273H634.126L248.072 632.16H249.773L635.827 -273Z" fill="#BEBEBE"/>
<path d="M641.612 -273H639.911L253.857 632.16H255.558L641.612 -273Z" fill="#BEBEBE"/>
<path d="M647.397 -273H645.696L259.641 632.16H261.343L647.397 -273Z" fill="#BEBEBE"/>
<path d="M653.182 -273H651.481L265.426 632.16H267.128L653.182 -273Z" fill="#BEBEBE"/>
<path d="M658.967 -273H657.265L271.211 632.16H272.913L658.967 -273Z" fill="#BEBEBE"/>
<path d="M664.752 -273H663.05L276.996 632.16H278.697L664.752 -273Z" fill="#BEBEBE"/>
<path d="M670.537 -273H668.835L282.781 632.16H284.482L670.537 -273Z" fill="#BEBEBE"/>
<path d="M537.485 -273H535.783L149.729 632.16H151.43L537.485 -273Z" fill="#BEBEBE"/>
<path d="M543.27 -273H541.568L155.514 632.16H157.215L543.27 -273Z" fill="#BEBEBE"/>
<path d="M549.055 -273H547.353L161.299 632.16H163L549.055 -273Z" fill="#BEBEBE"/>
<path d="M554.839 -273H553.138L167.084 632.16H168.785L554.839 -273Z" fill="#BEBEBE"/>
<path d="M560.624 -273H558.923L172.868 632.16H174.57L560.624 -273Z" fill="#BEBEBE"/>
<path d="M566.409 -273H564.708L178.653 632.16H180.355L566.409 -273Z" fill="#BEBEBE"/>
<path d="M572.194 -273H570.493L184.438 632.16H186.14L572.194 -273Z" fill="#BEBEBE"/>
<path d="M577.979 -273H576.277L190.223 632.16H191.925L577.979 -273Z" fill="#BEBEBE"/>
<path d="M583.764 -273H582.062L196.008 632.16H197.709L583.764 -273Z" fill="#BEBEBE"/>
<path d="M589.549 -273H587.847L201.793 632.16H203.494L589.549 -273Z" fill="#BEBEBE"/>
<path d="M595.333 -273H593.632L207.578 632.16H209.279L595.333 -273Z" fill="#BEBEBE"/>
<path d="M601.118 -273H599.417L213.363 632.16H215.064L601.118 -273Z" fill="#BEBEBE"/>
<path d="M606.903 -273H605.202L219.147 632.16H220.849L606.903 -273Z" fill="#BEBEBE"/>
<g opacity="0.6">
<path d="M1800.76 -561H1799.05L1413 344.16H1414.7L1800.76 -561Z" fill="#C8500D"/>
<path d="M1806.54 -561H1804.84L1418.78 344.16H1420.49L1806.54 -561Z" fill="#C8500D"/>
<path d="M1812.33 -561H1810.62L1424.57 344.16H1426.27L1812.33 -561Z" fill="#C8500D"/>
<path d="M1818.11 -561H1816.41L1430.35 344.16H1432.06L1818.11 -561Z" fill="#C8500D"/>
<path d="M1823.9 -561H1822.19L1436.14 344.16H1437.84L1823.9 -561Z" fill="#C8500D"/>
<path d="M1829.68 -561H1827.98L1441.92 344.16H1443.63L1829.68 -561Z" fill="#C8500D"/>
<path d="M1835.46 -561H1833.76L1447.71 344.16H1449.41L1835.46 -561Z" fill="#C8500D"/>
</g>
<g opacity="0.6">
<path d="M1840.76 -561H1839.05L1453 344.16H1454.7L1840.76 -561Z" fill="#C8500D"/>
<path d="M1846.54 -561H1844.84L1458.78 344.16H1460.49L1846.54 -561Z" fill="#C8500D"/>
<path d="M1852.33 -561H1850.62L1464.57 344.16H1466.27L1852.33 -561Z" fill="#C8500D"/>
<path d="M1858.11 -561H1856.41L1470.35 344.16H1472.06L1858.11 -561Z" fill="#C8500D"/>
<path d="M1863.9 -561H1862.19L1476.14 344.16H1477.84L1863.9 -561Z" fill="#C8500D"/>
<path d="M1869.68 -561H1867.98L1481.92 344.16H1483.63L1869.68 -561Z" fill="#C8500D"/>
<path d="M1875.46 -561H1873.76L1487.71 344.16H1489.41L1875.46 -561Z" fill="#C8500D"/>
</g>
<path opacity="0.6" fill-rule="evenodd" clip-rule="evenodd" d="M971.892 1355.17H970.191L1325.11 523H1326.82L971.892 1355.17ZM977.677 1355.17H975.976L1330.9 523H1332.6L977.677 1355.17ZM983.462 1355.17H981.761L1336.68 523H1338.39L983.462 1355.17ZM989.247 1355.17H987.546L1342.47 523H1344.17L989.247 1355.17ZM995.032 1355.17H993.33L1348.25 523H1349.96L995.032 1355.17ZM1000.82 1355.17H999.115L1354.04 523H1355.74L1000.82 1355.17ZM1006.6 1355.17H1004.9L1359.82 523H1361.52L1006.6 1355.17ZM1012.39 1355.17H1010.69L1365.61 523H1367.31L1012.39 1355.17ZM1018.17 1355.17H1016.47L1371.39 523H1373.09L1018.17 1355.17ZM1023.96 1355.17H1022.25L1377.18 523H1378.88L1023.96 1355.17ZM1029.74 1355.17H1028.04L1382.96 523H1384.66L1029.74 1355.17ZM1035.53 1355.17H1033.82L1388.75 523H1390.45L1035.53 1355.17ZM1041.31 1355.17H1039.61L1394.53 523H1396.23L1041.31 1355.17ZM1047.1 1355.17H1045.39L1400.32 523H1402.02L1047.1 1355.17ZM1052.88 1355.17H1051.18L1406.1 523H1407.8L1052.88 1355.17ZM1058.67 1355.17H1056.96L1411.89 523H1413.59L1058.67 1355.17ZM1064.45 1355.17H1062.75L1417.67 523H1419.37L1064.45 1355.17ZM1070.24 1355.17H1068.53L1423.46 523H1425.16L1070.24 1355.17ZM1076.02 1355.17H1074.32L1429.24 523H1430.94L1076.02 1355.17ZM1081.8 1355.17H1080.1L1435.03 523H1436.73L1081.8 1355.17ZM1087.59 1355.17H1085.89L1440.81 523H1442.51L1087.59 1355.17ZM1093.37 1355.17H1091.67L1446.6 523H1448.3L1093.37 1355.17ZM1099.16 1355.17H1097.46L1452.38 523H1454.08L1099.16 1355.17ZM1104.94 1355.17H1103.24L1458.17 523H1459.87L1104.94 1355.17ZM1110.73 1355.17H1109.03L1463.95 523H1465.65L1110.73 1355.17ZM1116.51 1355.17H1114.81L1469.74 523H1471.44L1116.51 1355.17ZM1122.3 1355.17H1120.6L1475.52 523H1477.22L1122.3 1355.17ZM1128.08 1355.17H1126.38L1481.31 523H1483.01L1128.08 1355.17ZM1133.87 1355.17H1132.17L1487.09 523H1488.79L1133.87 1355.17ZM1139.65 1355.17H1137.95L1492.88 523H1494.58L1139.65 1355.17ZM1145.44 1355.17H1143.74L1498.66 523H1500.36L1145.44 1355.17ZM1151.22 1355.17H1149.52L1504.44 523H1506.15L1151.22 1355.17ZM1157.01 1355.17H1155.31L1510.23 523H1511.93L1157.01 1355.17ZM1162.79 1355.17H1161.09L1516.01 523H1517.72L1162.79 1355.17ZM1168.58 1355.17H1166.88L1521.8 523H1523.5L1168.58 1355.17ZM1174.36 1355.17H1172.66L1527.58 523H1529.29L1174.36 1355.17ZM1180.15 1355.17H1178.45L1533.37 523H1535.07L1180.15 1355.17ZM1185.93 1355.17H1184.23L1539.15 523H1540.86L1185.93 1355.17ZM1191.72 1355.17H1190.02L1544.94 523H1546.64L1191.72 1355.17ZM1197.5 1355.17H1195.8L1550.72 523H1552.43L1197.5 1355.17ZM1203.29 1355.17H1201.59L1556.51 523H1558.21L1203.29 1355.17ZM1209.07 1355.17H1207.37L1562.29 523H1563.99L1209.07 1355.17ZM1214.86 1355.17H1213.16L1568.08 523H1569.78L1214.86 1355.17Z" fill="#C8500D"/>
<path d="M2562.01 -9H1993.05L1607 896.16H2175.96L2562.01 -9Z" fill="#E07F09" fill-opacity="0.9"/>
</g>
<defs>
<clipPath id="clip0_1459_119">
<rect width="2169" height="896" fill="white"/>
</clipPath>
</defs>
</svg>
